<svg id="visual" viewBox="0 0 900 600" width="900" height="600" xmlns="http://www.w3.org/2000/svg" xmlns:xlink="http://www.w3.org/1999/xlink" version="1.1"><rect x="0" y="0" width="900" height="600" fill="#ffffff"></rect><path d="M0 132L21.5 135.2C43 138.3 86 144.7 128.8 144C171.7 143.3 214.3 135.7 257.2 135.3C300 135 343 142 385.8 146C428.7 150 471.3 151 514.2 153.2C557 155.3 600 158.7 642.8 153.8C685.7 149 728.3 136 771.2 127.7C814 119.3 857 115.7 878.5 113.8L900 112L900 0L878.5 0C857 0 814 0 771.2 0C728.3 0 685.7 0 642.8 0C600 0 557 0 514.2 0C471.3 0 428.7 0 385.8 0C343 0 300 0 257.2 0C214.3 0 171.7 0 128.8 0C86 0 43 0 21.5 0L0 0Z" fill="#ffffff"></path><path d="M0 137L21.5 129.2C43 121.3 86 105.7 128.8 100C171.7 94.3 214.3 98.7 257.2 103.8C300 109 343 115 385.8 115.8C428.7 116.7 471.3 112.3 514.2 109.2C557 106 600 104 642.8 105.7C685.7 107.3 728.3 112.7 771.2 116.2C814 119.7 857 121.3 878.5 122.2L900 123L900 0L878.5 0C857 0 814 0 771.2 0C728.3 0 685.7 0 642.8 0C600 0 557 0 514.2 0C471.3 0 428.7 0 385.8 0C343 0 300 0 257.2 0C214.3 0 171.7 0 128.8 0C86 0 43 0 21.5 0L0 0Z" fill="#faf7f4"></path><path d="M0 74L21.5 76C43 78 86 82 128.8 82C171.7 82 214.3 78 257.2 83.5C300 89 343 104 385.8 105.7C428.7 107.3 471.3 95.7 514.2 87.3C557 79 600 74 642.8 74C685.7 74 728.3 79 771.2 86.2C814 93.3 857 102.7 878.5 107.3L900 112L900 0L878.5 0C857 0 814 0 771.2 0C728.3 0 685.7 0 642.8 0C600 0 557 0 514.2 0C471.3 0 428.7 0 385.8 0C343 0 300 0 257.2 0C214.3 0 171.7 0 128.8 0C86 0 43 0 21.5 0L0 0Z" fill="#f5eee9"></path><path d="M0 67L21.5 64.3C43 61.7 86 56.3 128.8 56.2C171.7 56 214.3 61 257.2 66.7C300 72.3 343 78.7 385.8 76.3C428.7 74 471.3 63 514.2 56.7C557 50.3 600 48.7 642.8 55.8C685.7 63 728.3 79 771.2 80.8C814 82.7 857 70.3 878.5 64.2L900 58L900 0L878.5 0C857 0 814 0 771.2 0C728.3 0 685.7 0 642.8 0C600 0 557 0 514.2 0C471.3 0 428.7 0 385.8 0C343 0 300 0 257.2 0C214.3 0 171.7 0 128.8 0C86 0 43 0 21.5 0L0 0Z" fill="#f0e6df"></path><path d="M0 36L21.5 38.8C43 41.7 86 47.3 128.8 49.7C171.7 52 214.3 51 257.2 53.7C300 56.3 343 62.7 385.8 64.3C428.7 66 471.3 63 514.2 58.2C557 53.3 600 46.7 642.8 45C685.7 43.3 728.3 46.7 771.2 49.8C814 53 857 56 878.5 57.5L900 59L900 0L878.5 0C857 0 814 0 771.2 0C728.3 0 685.7 0 642.8 0C600 0 557 0 514.2 0C471.3 0 428.7 0 385.8 0C343 0 300 0 257.2 0C214.3 0 171.7 0 128.8 0C86 0 43 0 21.5 0L0 0Z" fill="#ebddd4"></path><path d="M0 10L21.5 11.7C43 13.3 86 16.7 128.8 16.5C171.7 16.3 214.3 12.7 257.2 12.2C300 11.7 343 14.3 385.8 19.5C428.7 24.7 471.3 32.3 514.2 31.3C557 30.3 600 20.7 642.8 19.8C685.7 19 728.3 27 771.2 30.5C814 34 857 33 878.5 32.5L900 32L900 0L878.5 0C857 0 814 0 771.2 0C728.3 0 685.7 0 642.8 0C600 0 557 0 514.2 0C471.3 0 428.7 0 385.8 0C343 0 300 0 257.2 0C214.3 0 171.7 0 128.8 0C86 0 43 0 21.5 0L0 0Z" fill="#e6d5ca"></path></svg>