<svg id="visual" viewBox="0 0 900 600" width="900" height="600" xmlns="http://www.w3.org/2000/svg" xmlns:xlink="http://www.w3.org/1999/xlink" version="1.1"><rect x="0" y="0" width="900" height="600" fill="#e6d5ca"></rect><path d="M0 444L21.5 447.5C43 451 86 458 128.8 457.2C171.7 456.3 214.3 447.7 257.2 445.5C300 443.3 343 447.7 385.8 453.3C428.7 459 471.3 466 514.2 465.3C557 464.7 600 456.3 642.8 450.5C685.7 444.7 728.3 441.3 771.2 441.3C814 441.3 857 444.7 878.5 446.3L900 448L900 601L878.5 601C857 601 814 601 771.2 601C728.3 601 685.7 601 642.8 601C600 601 557 601 514.2 601C471.3 601 428.7 601 385.8 601C343 601 300 601 257.2 601C214.3 601 171.7 601 128.8 601C86 601 43 601 21.5 601L0 601Z" fill="#e6d5ca"></path><path d="M0 482L21.5 485.3C43 488.7 86 495.3 128.8 492.3C171.7 489.3 214.3 476.7 257.2 471C300 465.3 343 466.7 385.8 467.8C428.7 469 471.3 470 514.2 470.3C557 470.7 600 470.3 642.8 474C685.7 477.7 728.3 485.3 771.2 487.2C814 489 857 485 878.5 483L900 481L900 601L878.5 601C857 601 814 601 771.2 601C728.3 601 685.7 601 642.8 601C600 601 557 601 514.2 601C471.3 601 428.7 601 385.8 601C343 601 300 601 257.2 601C214.3 601 171.7 601 128.8 601C86 601 43 601 21.5 601L0 601Z" fill="#eddfd7"></path><path d="M0 536L21.5 528.3C43 520.7 86 505.3 128.8 501.5C171.7 497.7 214.3 505.3 257.2 512.5C300 519.7 343 526.3 385.8 525.2C428.7 524 471.3 515 514.2 507.7C557 500.3 600 494.7 642.8 493.8C685.7 493 728.3 497 771.2 502.5C814 508 857 515 878.5 518.5L900 522L900 601L878.5 601C857 601 814 601 771.2 601C728.3 601 685.7 601 642.8 601C600 601 557 601 514.2 601C471.3 601 428.7 601 385.8 601C343 601 300 601 257.2 601C214.3 601 171.7 601 128.8 601C86 601 43 601 21.5 601L0 601Z" fill="#f3eae4"></path><path d="M0 522L21.5 522C43 522 86 522 128.8 525.8C171.7 529.7 214.3 537.3 257.2 538.2C300 539 343 533 385.8 529.2C428.7 525.3 471.3 523.7 514.2 524.8C557 526 600 530 642.8 534.7C685.7 539.3 728.3 544.7 771.2 547.2C814 549.7 857 549.3 878.5 549.2L900 549L900 601L878.5 601C857 601 814 601 771.2 601C728.3 601 685.7 601 642.8 601C600 601 557 601 514.2 601C471.3 601 428.7 601 385.8 601C343 601 300 601 257.2 601C214.3 601 171.7 601 128.8 601C86 601 43 601 21.5 601L0 601Z" fill="#f9f4f1"></path><path d="M0 549L21.5 549.3C43 549.7 86 550.3 128.8 552.8C171.7 555.3 214.3 559.7 257.2 561.5C300 563.3 343 562.7 385.8 560C428.7 557.3 471.3 552.7 514.2 551.7C557 550.7 600 553.3 642.8 555.3C685.7 557.3 728.3 558.7 771.2 564.5C814 570.3 857 580.7 878.5 585.8L900 591L900 601L878.5 601C857 601 814 601 771.2 601C728.3 601 685.7 601 642.8 601C600 601 557 601 514.2 601C471.3 601 428.7 601 385.8 601C343 601 300 601 257.2 601C214.3 601 171.7 601 128.8 601C86 601 43 601 21.5 601L0 601Z" fill="#ffffff"></path></svg>