<svg id="visual" viewBox="0 0 900 600" width="900" height="600" xmlns="http://www.w3.org/2000/svg" xmlns:xlink="http://www.w3.org/1999/xlink" version="1.1"><path d="M0 31L13.7 35C27.3 39 54.7 47 82 54C109.3 61 136.7 67 163.8 64C191 61 218 49 245.2 46C272.3 43 299.7 49 327 53C354.3 57 381.7 59 409 61C436.3 63 463.7 65 491 64C518.3 63 545.7 59 573 54C600.3 49 627.7 43 654.8 45C682 47 709 57 736.2 63C763.3 69 790.7 71 818 74C845.3 77 872.7 81 886.3 83L900 85L900 0L886.3 0C872.7 0 845.3 0 818 0C790.7 0 763.3 0 736.2 0C709 0 682 0 654.8 0C627.7 0 600.3 0 573 0C545.7 0 518.3 0 491 0C463.7 0 436.3 0 409 0C381.7 0 354.3 0 327 0C299.7 0 272.3 0 245.2 0C218 0 191 0 163.8 0C136.7 0 109.3 0 82 0C54.7 0 27.3 0 13.7 0L0 0Z" fill="#e6d5ca"></path><path d="M0 67L13.7 75C27.3 83 54.7 99 82 106C109.3 113 136.7 111 163.8 109C191 107 218 105 245.2 102C272.3 99 299.7 95 327 99C354.3 103 381.7 115 409 117C436.3 119 463.7 111 491 107C518.3 103 545.7 103 573 102C600.3 101 627.7 99 654.8 100C682 101 709 105 736.2 110C763.3 115 790.7 121 818 121C845.3 121 872.7 115 886.3 112L900 109L900 83L886.3 81C872.7 79 845.3 75 818 72C790.7 69 763.3 67 736.2 61C709 55 682 45 654.8 43C627.7 41 600.3 47 573 52C545.7 57 518.3 61 491 62C463.7 63 436.3 61 409 59C381.7 57 354.3 55 327 51C299.7 47 272.3 41 245.2 44C218 47 191 59 163.8 62C136.7 65 109.3 59 82 52C54.7 45 27.3 37 13.7 33L0 29Z" fill="#eee3db"></path><path d="M0 157L13.7 164C27.3 171 54.7 185 82 189C109.3 193 136.7 187 163.8 186C191 185 218 189 245.2 183C272.3 177 299.7 161 327 159C354.3 157 381.7 169 409 181C436.3 193 463.7 205 491 210C518.3 215 545.7 213 573 208C600.3 203 627.7 195 654.8 200C682 205 709 223 736.2 232C763.3 241 790.7 241 818 234C845.3 227 872.7 213 886.3 206L900 199L900 107L886.3 110C872.7 113 845.3 119 818 119C790.7 119 763.3 113 736.2 108C709 103 682 99 654.8 98C627.7 97 600.3 99 573 100C545.7 101 518.3 101 491 105C463.7 109 436.3 117 409 115C381.7 113 354.3 101 327 97C299.7 93 272.3 97 245.2 100C218 103 191 105 163.8 107C136.7 109 109.3 111 82 104C54.7 97 27.3 81 13.7 73L0 65Z" fill="#f3ebe6"></path><path d="M0 289L13.7 295C27.3 301 54.7 313 82 308C109.3 303 136.7 281 163.8 283C191 285 218 311 245.2 306C272.3 301 299.7 265 327 258C354.3 251 381.7 273 409 304C436.3 335 463.7 375 491 371C518.3 367 545.7 319 573 306C600.3 293 627.7 315 654.8 330C682 345 709 353 736.2 348C763.3 343 790.7 325 818 325C845.3 325 872.7 343 886.3 352L900 361L900 197L886.3 204C872.7 211 845.3 225 818 232C790.7 239 763.3 239 736.2 230C709 221 682 203 654.8 198C627.7 193 600.3 201 573 206C545.7 211 518.3 213 491 208C463.7 203 436.3 191 409 179C381.7 167 354.3 155 327 157C299.7 159 272.3 175 245.2 181C218 187 191 183 163.8 184C136.7 185 109.3 191 82 187C54.7 183 27.3 169 13.7 162L0 155Z" fill="#f5eeea"></path><path d="M0 469L13.7 473C27.3 477 54.7 485 82 487C109.3 489 136.7 485 163.8 478C191 471 218 461 245.2 463C272.3 465 299.7 479 327 482C354.3 485 381.7 477 409 480C436.3 483 463.7 497 491 495C518.3 493 545.7 475 573 466C600.3 457 627.7 457 654.8 462C682 467 709 477 736.2 482C763.3 487 790.7 487 818 489C845.3 491 872.7 495 886.3 497L900 499L900 359L886.3 350C872.7 341 845.3 323 818 323C790.7 323 763.3 341 736.2 346C709 351 682 343 654.8 328C627.7 313 600.3 291 573 304C545.7 317 518.3 365 491 369C463.7 373 436.3 333 409 302C381.7 271 354.3 249 327 256C299.7 263 272.3 299 245.2 304C218 309 191 283 163.8 281C136.7 279 109.3 301 82 306C54.7 311 27.3 299 13.7 293L0 287Z" fill="#f3ebe6"></path><path d="M0 529L13.7 531C27.3 533 54.7 537 82 538C109.3 539 136.7 537 163.8 538C191 539 218 543 245.2 550C272.3 557 299.7 567 327 567C354.3 567 381.7 557 409 552C436.3 547 463.7 547 491 546C518.3 545 545.7 543 573 540C600.3 537 627.7 533 654.8 531C682 529 709 529 736.2 531C763.3 533 790.7 537 818 538C845.3 539 872.7 537 886.3 536L900 535L900 497L886.3 495C872.7 493 845.3 489 818 487C790.7 485 763.3 485 736.2 480C709 475 682 465 654.8 460C627.7 455 600.3 455 573 464C545.7 473 518.3 491 491 493C463.7 495 436.3 481 409 478C381.7 475 354.3 483 327 480C299.7 477 272.3 463 245.2 461C218 459 191 469 163.8 476C136.7 483 109.3 487 82 485C54.7 483 27.3 475 13.7 471L0 467Z" fill="#eee3db"></path><path d="M0 601L13.7 601C27.3 601 54.7 601 82 601C109.3 601 136.7 601 163.8 601C191 601 218 601 245.2 601C272.3 601 299.7 601 327 601C354.3 601 381.7 601 409 601C436.3 601 463.7 601 491 601C518.3 601 545.7 601 573 601C600.3 601 627.7 601 654.8 601C682 601 709 601 736.2 601C763.3 601 790.7 601 818 601C845.3 601 872.7 601 886.3 601L900 601L900 533L886.3 534C872.7 535 845.3 537 818 536C790.7 535 763.3 531 736.2 529C709 527 682 527 654.8 529C627.7 531 600.3 535 573 538C545.7 541 518.3 543 491 544C463.7 545 436.3 545 409 550C381.7 555 354.3 565 327 565C299.7 565 272.3 555 245.2 548C218 541 191 537 163.8 536C136.7 535 109.3 537 82 536C54.7 535 27.3 531 13.7 529L0 527Z" fill="#e6d5ca"></path></svg>