<svg id="visual" viewBox="0 0 900 600" width="900" height="600" xmlns="http://www.w3.org/2000/svg" xmlns:xlink="http://www.w3.org/1999/xlink" version="1.1"><path d="M0 223L13.7 211C27.3 199 54.7 175 82 181C109.3 187 136.7 223 163.8 222C191 221 218 183 245.2 165C272.3 147 299.7 149 327 158C354.3 167 381.7 183 409 203C436.3 223 463.7 247 491 256C518.3 265 545.7 259 573 256C600.3 253 627.7 253 654.8 247C682 241 709 229 736.2 228C763.3 227 790.7 237 818 228C845.3 219 872.7 191 886.3 177L900 163L900 0L886.3 0C872.7 0 845.3 0 818 0C790.7 0 763.3 0 736.2 0C709 0 682 0 654.8 0C627.7 0 600.3 0 573 0C545.7 0 518.3 0 491 0C463.7 0 436.3 0 409 0C381.7 0 354.3 0 327 0C299.7 0 272.3 0 245.2 0C218 0 191 0 163.8 0C136.7 0 109.3 0 82 0C54.7 0 27.3 0 13.7 0L0 0Z" fill="#dfc9bb"></path><path d="M0 295L13.7 282C27.3 269 54.7 243 82 246C109.3 249 136.7 281 163.8 281C191 281 218 249 245.2 233C272.3 217 299.7 217 327 224C354.3 231 381.7 245 409 271C436.3 297 463.7 335 491 342C518.3 349 545.7 325 573 311C600.3 297 627.7 293 654.8 294C682 295 709 301 736.2 302C763.3 303 790.7 299 818 288C845.3 277 872.7 259 886.3 250L900 241L900 161L886.3 175C872.7 189 845.3 217 818 226C790.7 235 763.3 225 736.2 226C709 227 682 239 654.8 245C627.7 251 600.3 251 573 254C545.7 257 518.3 263 491 254C463.7 245 436.3 221 409 201C381.7 181 354.3 165 327 156C299.7 147 272.3 145 245.2 163C218 181 191 219 163.8 220C136.7 221 109.3 185 82 179C54.7 173 27.3 197 13.7 209L0 221Z" fill="#e4d1c5"></path><path d="M0 385L13.7 390C27.3 395 54.7 405 82 411C109.3 417 136.7 419 163.8 422C191 425 218 429 245.2 420C272.3 411 299.7 389 327 384C354.3 379 381.7 391 409 408C436.3 425 463.7 447 491 451C518.3 455 545.7 441 573 424C600.3 407 627.7 387 654.8 394C682 401 709 435 736.2 440C763.3 445 790.7 421 818 426C845.3 431 872.7 465 886.3 482L900 499L900 239L886.3 248C872.7 257 845.3 275 818 286C790.7 297 763.3 301 736.2 300C709 299 682 293 654.8 292C627.7 291 600.3 295 573 309C545.7 323 518.3 347 491 340C463.7 333 436.3 295 409 269C381.7 243 354.3 229 327 222C299.7 215 272.3 215 245.2 231C218 247 191 279 163.8 279C136.7 279 109.3 247 82 244C54.7 241 27.3 267 13.7 280L0 293Z" fill="#e8d9cf"></path><path d="M0 523L13.7 526C27.3 529 54.7 535 82 531C109.3 527 136.7 513 163.8 512C191 511 218 523 245.2 528C272.3 533 299.7 531 327 527C354.3 523 381.7 517 409 518C436.3 519 463.7 527 491 521C518.3 515 545.7 495 573 485C600.3 475 627.7 475 654.8 487C682 499 709 523 736.2 526C763.3 529 790.7 511 818 513C845.3 515 872.7 537 886.3 548L900 559L900 497L886.3 480C872.7 463 845.3 429 818 424C790.7 419 763.3 443 736.2 438C709 433 682 399 654.8 392C627.7 385 600.3 405 573 422C545.7 439 518.3 453 491 449C463.7 445 436.3 423 409 406C381.7 389 354.3 377 327 382C299.7 387 272.3 409 245.2 418C218 427 191 423 163.8 420C136.7 417 109.3 415 82 409C54.7 403 27.3 393 13.7 388L0 383Z" fill="#ebdfd6"></path><path d="M0 601L13.7 601C27.3 601 54.7 601 82 601C109.3 601 136.7 601 163.8 601C191 601 218 601 245.2 601C272.3 601 299.7 601 327 601C354.3 601 381.7 601 409 601C436.3 601 463.7 601 491 601C518.3 601 545.7 601 573 601C600.3 601 627.7 601 654.8 601C682 601 709 601 736.2 601C763.3 601 790.7 601 818 601C845.3 601 872.7 601 886.3 601L900 601L900 557L886.3 546C872.7 535 845.3 513 818 511C790.7 509 763.3 527 736.2 524C709 521 682 497 654.8 485C627.7 473 600.3 473 573 483C545.7 493 518.3 513 491 519C463.7 525 436.3 517 409 516C381.7 515 354.3 521 327 525C299.7 529 272.3 531 245.2 526C218 521 191 509 163.8 510C136.7 511 109.3 525 82 529C54.7 533 27.3 527 13.7 524L0 521Z" fill="#efe5de"></path></svg>