<svg id="visual" viewBox="0 0 900 600" width="900" height="600" xmlns="http://www.w3.org/2000/svg" xmlns:xlink="http://www.w3.org/1999/xlink" version="1.1"><path d="M0 432L21.5 433.2C43 434.3 86 436.7 128.8 436.2C171.7 435.7 214.3 432.3 257.2 432.2C300 432 343 435 385.8 428C428.7 421 471.3 404 514.2 392.5C557 381 600 375 642.8 377.3C685.7 379.7 728.3 390.3 771.2 402.5C814 414.7 857 428.3 878.5 435.2L900 442L900 601L878.5 601C857 601 814 601 771.2 601C728.3 601 685.7 601 642.8 601C600 601 557 601 514.2 601C471.3 601 428.7 601 385.8 601C343 601 300 601 257.2 601C214.3 601 171.7 601 128.8 601C86 601 43 601 21.5 601L0 601Z" fill="#e0cdbf"></path><path d="M0 436L21.5 437.5C43 439 86 442 128.8 435C171.7 428 214.3 411 257.2 413.7C300 416.3 343 438.7 385.8 440.8C428.7 443 471.3 425 514.2 426.7C557 428.3 600 449.7 642.8 460C685.7 470.3 728.3 469.7 771.2 462.7C814 455.7 857 442.3 878.5 435.7L900 429L900 601L878.5 601C857 601 814 601 771.2 601C728.3 601 685.7 601 642.8 601C600 601 557 601 514.2 601C471.3 601 428.7 601 385.8 601C343 601 300 601 257.2 601C214.3 601 171.7 601 128.8 601C86 601 43 601 21.5 601L0 601Z" fill="#e8d9cf"></path><path d="M0 462L21.5 465.3C43 468.7 86 475.3 128.8 474.5C171.7 473.7 214.3 465.3 257.2 467C300 468.7 343 480.3 385.8 483C428.7 485.7 471.3 479.3 514.2 473C557 466.7 600 460.3 642.8 456.2C685.7 452 728.3 450 771.2 450.5C814 451 857 454 878.5 455.5L900 457L900 601L878.5 601C857 601 814 601 771.2 601C728.3 601 685.7 601 642.8 601C600 601 557 601 514.2 601C471.3 601 428.7 601 385.8 601C343 601 300 601 257.2 601C214.3 601 171.7 601 128.8 601C86 601 43 601 21.5 601L0 601Z" fill="#f0e6df"></path><path d="M0 500L21.5 506.3C43 512.7 86 525.3 128.8 526.3C171.7 527.3 214.3 516.7 257.2 512.3C300 508 343 510 385.8 516C428.7 522 471.3 532 514.2 531.7C557 531.3 600 520.7 642.8 520.5C685.7 520.3 728.3 530.7 771.2 527.7C814 524.7 857 508.3 878.5 500.2L900 492L900 601L878.5 601C857 601 814 601 771.2 601C728.3 601 685.7 601 642.8 601C600 601 557 601 514.2 601C471.3 601 428.7 601 385.8 601C343 601 300 601 257.2 601C214.3 601 171.7 601 128.8 601C86 601 43 601 21.5 601L0 601Z" fill="#f8f2ef"></path><path d="M0 544L21.5 542.2C43 540.3 86 536.7 128.8 534.3C171.7 532 214.3 531 257.2 530.3C300 529.7 343 529.3 385.8 529.3C428.7 529.3 471.3 529.7 514.2 529.3C557 529 600 528 642.8 531.8C685.7 535.7 728.3 544.3 771.2 551.5C814 558.7 857 564.3 878.5 567.2L900 570L900 601L878.5 601C857 601 814 601 771.2 601C728.3 601 685.7 601 642.8 601C600 601 557 601 514.2 601C471.3 601 428.7 601 385.8 601C343 601 300 601 257.2 601C214.3 601 171.7 601 128.8 601C86 601 43 601 21.5 601L0 601Z" fill="#ffffff"></path></svg>