<svg id="visual" viewBox="0 0 900 600" width="900" height="600" xmlns="http://www.w3.org/2000/svg" xmlns:xlink="http://www.w3.org/1999/xlink" version="1.1"><path d="M0 543L18.8 542.3C37.7 541.7 75.3 540.3 112.8 540.7C150.3 541 187.7 543 225.2 531.5C262.7 520 300.3 495 337.8 492.5C375.3 490 412.7 510 450.2 512.7C487.7 515.3 525.3 500.7 562.8 503.8C600.3 507 637.7 528 675.2 532.5C712.7 537 750.3 525 787.8 516.5C825.3 508 862.7 503 881.3 500.5L900 498L900 601L881.3 601C862.7 601 825.3 601 787.8 601C750.3 601 712.7 601 675.2 601C637.7 601 600.3 601 562.8 601C525.3 601 487.7 601 450.2 601C412.7 601 375.3 601 337.8 601C300.3 601 262.7 601 225.2 601C187.7 601 150.3 601 112.8 601C75.3 601 37.7 601 18.8 601L0 601Z" fill="#e0cdbf" stroke-linecap="round" stroke-linejoin="miter"></path></svg>