<svg id="visual" viewBox="0 0 900 600" width="900" height="600" xmlns="http://www.w3.org/2000/svg" xmlns:xlink="http://www.w3.org/1999/xlink" version="1.1"><rect x="0" y="0" width="900" height="600" fill="#ffffff"></rect><path d="M0 535L21.5 524.3C43 513.7 86 492.3 128.8 492C171.7 491.7 214.3 512.3 257.2 520C300 527.7 343 522.3 385.8 519C428.7 515.7 471.3 514.3 514.2 520.5C557 526.7 600 540.3 642.8 533.3C685.7 526.3 728.3 498.7 771.2 489C814 479.3 857 487.7 878.5 491.8L900 496L900 601L878.5 601C857 601 814 601 771.2 601C728.3 601 685.7 601 642.8 601C600 601 557 601 514.2 601C471.3 601 428.7 601 385.8 601C343 601 300 601 257.2 601C214.3 601 171.7 601 128.8 601C86 601 43 601 21.5 601L0 601Z" fill="#e8d9cf" stroke-linecap="round" stroke-linejoin="miter"></path></svg>