<svg id="visual" viewBox="0 0 900 600" width="900" height="600" xmlns="http://www.w3.org/2000/svg" xmlns:xlink="http://www.w3.org/1999/xlink" version="1.1"><rect x="0" y="0" width="900" height="600" fill="#ffffff"></rect><path d="M0 581L21.5 577.2C43 573.3 86 565.7 128.8 561.8C171.7 558 214.3 558 257.2 559C300 560 343 562 385.8 566.2C428.7 570.3 471.3 576.7 514.2 577.7C557 578.7 600 574.3 642.8 573.2C685.7 572 728.3 574 771.2 573.7C814 573.3 857 570.7 878.5 569.3L900 568L900 601L878.5 601C857 601 814 601 771.2 601C728.3 601 685.7 601 642.8 601C600 601 557 601 514.2 601C471.3 601 428.7 601 385.8 601C343 601 300 601 257.2 601C214.3 601 171.7 601 128.8 601C86 601 43 601 21.5 601L0 601Z" fill="#eadcce" stroke-linecap="round" stroke-linejoin="miter"></path></svg>