<svg id="visual" viewBox="0 0 900 600" width="900" height="600" xmlns="http://www.w3.org/2000/svg" xmlns:xlink="http://www.w3.org/1999/xlink" version="1.1"><rect x="0" y="0" width="900" height="600" fill="#ffffff"></rect><path d="M0 477L21.5 488.7C43 500.3 86 523.7 128.8 527.5C171.7 531.3 214.3 515.7 257.2 502C300 488.3 343 476.7 385.8 474.8C428.7 473 471.3 481 514.2 487.7C557 494.3 600 499.7 642.8 499.2C685.7 498.7 728.3 492.3 771.2 499.8C814 507.3 857 528.7 878.5 539.3L900 550L900 601L878.5 601C857 601 814 601 771.2 601C728.3 601 685.7 601 642.8 601C600 601 557 601 514.2 601C471.3 601 428.7 601 385.8 601C343 601 300 601 257.2 601C214.3 601 171.7 601 128.8 601C86 601 43 601 21.5 601L0 601Z" fill="#eadcce" stroke-linecap="round" stroke-linejoin="miter"></path></svg>