<svg id="visual" viewBox="0 0 900 600" width="900" height="600" xmlns="http://www.w3.org/2000/svg" xmlns:xlink="http://www.w3.org/1999/xlink" version="1.1"><path d="M0 166L21.5 164.8C43 163.7 86 161.3 128.8 161.8C171.7 162.3 214.3 165.7 257.2 165.8C300 166 343 163 385.8 170C428.7 177 471.3 194 514.2 205.5C557 217 600 223 642.8 220.7C685.7 218.3 728.3 207.7 771.2 195.5C814 183.3 857 169.7 878.5 162.8L900 156L900 0L878.5 0C857 0 814 0 771.2 0C728.3 0 685.7 0 642.8 0C600 0 557 0 514.2 0C471.3 0 428.7 0 385.8 0C343 0 300 0 257.2 0C214.3 0 171.7 0 128.8 0C86 0 43 0 21.5 0L0 0Z" fill="#ffffff"></path><path d="M0 162L21.5 160.5C43 159 86 156 128.8 163C171.7 170 214.3 187 257.2 184.3C300 181.7 343 159.3 385.8 157.2C428.7 155 471.3 173 514.2 171.3C557 169.7 600 148.3 642.8 138C685.7 127.7 728.3 128.3 771.2 135.3C814 142.3 857 155.7 878.5 162.3L900 169L900 0L878.5 0C857 0 814 0 771.2 0C728.3 0 685.7 0 642.8 0C600 0 557 0 514.2 0C471.3 0 428.7 0 385.8 0C343 0 300 0 257.2 0C214.3 0 171.7 0 128.8 0C86 0 43 0 21.5 0L0 0Z" fill="#f8f2ef"></path><path d="M0 136L21.5 132.7C43 129.3 86 122.7 128.8 123.5C171.7 124.3 214.3 132.7 257.2 131C300 129.3 343 117.7 385.8 115C428.7 112.3 471.3 118.7 514.2 125C557 131.3 600 137.7 642.8 141.8C685.7 146 728.3 148 771.2 147.5C814 147 857 144 878.5 142.5L900 141L900 0L878.5 0C857 0 814 0 771.2 0C728.3 0 685.7 0 642.8 0C600 0 557 0 514.2 0C471.3 0 428.7 0 385.8 0C343 0 300 0 257.2 0C214.3 0 171.7 0 128.8 0C86 0 43 0 21.5 0L0 0Z" fill="#f0e6df"></path><path d="M0 98L21.5 91.7C43 85.3 86 72.7 128.8 71.7C171.7 70.7 214.3 81.3 257.2 85.7C300 90 343 88 385.8 82C428.7 76 471.3 66 514.2 66.3C557 66.7 600 77.3 642.8 77.5C685.7 77.7 728.3 67.3 771.2 70.3C814 73.3 857 89.7 878.5 97.8L900 106L900 0L878.5 0C857 0 814 0 771.2 0C728.3 0 685.7 0 642.8 0C600 0 557 0 514.2 0C471.3 0 428.7 0 385.8 0C343 0 300 0 257.2 0C214.3 0 171.7 0 128.8 0C86 0 43 0 21.5 0L0 0Z" fill="#e8d9cf"></path><path d="M0 54L21.5 55.8C43 57.7 86 61.3 128.8 63.7C171.7 66 214.3 67 257.2 67.7C300 68.3 343 68.7 385.8 68.7C428.7 68.7 471.3 68.3 514.2 68.7C557 69 600 70 642.8 66.2C685.7 62.3 728.3 53.7 771.2 46.5C814 39.3 857 33.7 878.5 30.8L900 28L900 0L878.5 0C857 0 814 0 771.2 0C728.3 0 685.7 0 642.8 0C600 0 557 0 514.2 0C471.3 0 428.7 0 385.8 0C343 0 300 0 257.2 0C214.3 0 171.7 0 128.8 0C86 0 43 0 21.5 0L0 0Z" fill="#e0cdbf"></path></svg>